# xmcd
#
# Track frame offsets:
#	150
#	11408
#	24061
#	38563
#	49530
#	58968
#	75091
#	86626
#	98385
#	113185
#	125688
#	137684
#	147420
#	157827
#
# Disc length: 2311 seconds
#
# Revision: 0
# Processed by: cddbd v1.5.1PL0 Copyright (c) Steve Scherf et al.
# Submitted via: dBpowerAMP V4.0
#
DISCID=9d09050e
DTITLE=Grady Musick - Playin' The Blues
DYEAR=2005
DGENRE=Blues
TTITLE0=Better Off Dead
TTITLE1=Come Together
TTITLE2=Can't Be Satisfied
TTITLE3=Walkin' Blues "Live"
TTITLE4=Miss Maybelle
TTITLE5=Mean Mistreater
TTITLE6=Catfish Blues "Live"
TTITLE7=Don't Care How Long
TTITLE8=One Of These Days
TTITLE9=Peaches
TTITLE10=Trouble Blues
TTITLE11=Love That Woman
TTITLE12=Play My Blues Away
TTITLE13=Rainy Day
EXTD=www.gradymusick.com
EXTT0=
EXTT1=
EXTT2=
EXTT3=
EXTT4=
EXTT5=
EXTT6=
EXTT7=
EXTT8=
EXTT9=
EXTT10=
EXTT11=
EXTT12=
EXTT13=
PLAYORDER=
